<mxfile host="app.diagrams.net" modified="2024-03-31T03:49:26.720Z" agent="Mozilla/5.0 (Macintosh; Intel Mac OS X 10_15_7) AppleWebKit/537.36 (KHTML, like Gecko) Chrome/122.0.0.0 Safari/537.36 Edg/122.0.0.0" etag="biz2JvHtyFb5qi4GFFw-" version="24.2.1" type="github" pages="2">
  <diagram name="Page-1" id="c7558073-3199-34d8-9f00-42111426c3f3">
    <mxGraphModel dx="631" dy="430" grid="1" gridSize="10" guides="1" tooltips="1" connect="1" arrows="1" fold="1" page="1" pageScale="1" pageWidth="2336" pageHeight="1654" background="none" math="0" shadow="0">
      <root>
        <mxCell id="0" />
        <mxCell id="1" parent="0" />
        <mxCell id="8lQEx15QJK0aQOlj2Dff-179" value="" style="group;movable=1;resizable=1;rotatable=1;deletable=1;editable=1;locked=0;connectable=1;" vertex="1" connectable="0" parent="1">
          <mxGeometry x="33" y="40" width="497" height="390" as="geometry" />
        </mxCell>
        <mxCell id="8lQEx15QJK0aQOlj2Dff-180" value="" style="rounded=1;whiteSpace=wrap;html=1;dashed=1;movable=1;resizable=1;rotatable=1;deletable=1;editable=1;locked=0;connectable=1;" vertex="1" parent="8lQEx15QJK0aQOlj2Dff-179">
          <mxGeometry x="-13" y="-15.5" width="473" height="375.5" as="geometry" />
        </mxCell>
        <mxCell id="8lQEx15QJK0aQOlj2Dff-150" value="&lt;font face=&quot;Times New Roman&quot; style=&quot;font-size: 16px;&quot;&gt;Question&lt;/font&gt;&lt;div style=&quot;font-size: 11px;&quot;&gt;&lt;div style=&quot;&quot;&gt;&lt;font face=&quot;LVEGGYO8lpx8OsoNp6x9&quot; style=&quot;font-size: 11px;&quot;&gt;&amp;nbsp;&amp;nbsp;&lt;/font&gt;&lt;/div&gt;&lt;div style=&quot;&quot;&gt;&lt;font face=&quot;LVEGGYO8lpx8OsoNp6x9&quot; style=&quot;font-size: 11px;&quot;&gt;&lt;br&gt;&lt;/font&gt;&lt;/div&gt;&lt;div style=&quot;&quot;&gt;&lt;font face=&quot;LVEGGYO8lpx8OsoNp6x9&quot;&gt;&lt;br&gt;&lt;/font&gt;&lt;/div&gt;&lt;div style=&quot;&quot;&gt;&lt;br&gt;&lt;/div&gt;&lt;/div&gt;" style="rounded=1;whiteSpace=wrap;html=1;dashed=1;movable=1;resizable=1;rotatable=1;deletable=1;editable=1;locked=0;connectable=1;" vertex="1" parent="8lQEx15QJK0aQOlj2Dff-179">
          <mxGeometry y="255" width="449" height="79" as="geometry" />
        </mxCell>
        <mxCell id="8lQEx15QJK0aQOlj2Dff-146" value="&lt;div style=&quot;font-size: 15px;&quot;&gt;&lt;font style=&quot;font-size: 15px;&quot; face=&quot;Times New Roman&quot;&gt;&lt;br&gt;&lt;/font&gt;&lt;/div&gt;&lt;font style=&quot;font-size: 16px;&quot; face=&quot;Times New Roman&quot;&gt;Financial Data&lt;/font&gt;&lt;div style=&quot;font-size: 15px;&quot;&gt;&lt;font style=&quot;font-size: 15px;&quot; face=&quot;Times New Roman&quot;&gt;&lt;br&gt;&lt;/font&gt;&lt;/div&gt;&lt;div style=&quot;font-size: 15px;&quot;&gt;&lt;font style=&quot;font-size: 15px;&quot; face=&quot;Times New Roman&quot;&gt;&lt;br&gt;&lt;/font&gt;&lt;/div&gt;&lt;div style=&quot;font-size: 15px;&quot;&gt;&lt;font style=&quot;font-size: 15px;&quot; face=&quot;Times New Roman&quot;&gt;&lt;br&gt;&lt;/font&gt;&lt;/div&gt;&lt;div style=&quot;font-size: 15px;&quot;&gt;&lt;font style=&quot;font-size: 15px;&quot; face=&quot;Times New Roman&quot;&gt;&lt;br&gt;&lt;/font&gt;&lt;/div&gt;&lt;div style=&quot;font-size: 15px;&quot;&gt;&lt;font style=&quot;font-size: 15px;&quot; face=&quot;Times New Roman&quot;&gt;&lt;br&gt;&lt;/font&gt;&lt;/div&gt;&lt;div style=&quot;font-size: 15px;&quot;&gt;&lt;font style=&quot;font-size: 15px;&quot; face=&quot;Times New Roman&quot;&gt;&lt;br&gt;&lt;/font&gt;&lt;/div&gt;&lt;div style=&quot;font-size: 15px;&quot;&gt;&lt;font style=&quot;font-size: 15px;&quot; face=&quot;Times New Roman&quot;&gt;&lt;br&gt;&lt;/font&gt;&lt;/div&gt;&lt;div style=&quot;font-size: 15px;&quot;&gt;&lt;font style=&quot;font-size: 15px;&quot; face=&quot;Times New Roman&quot;&gt;&lt;br&gt;&lt;/font&gt;&lt;/div&gt;&lt;div style=&quot;font-size: 15px;&quot;&gt;&lt;font style=&quot;font-size: 15px;&quot; face=&quot;Times New Roman&quot;&gt;&lt;br&gt;&lt;/font&gt;&lt;/div&gt;&lt;div style=&quot;font-size: 15px;&quot;&gt;&lt;font style=&quot;font-size: 15px;&quot; face=&quot;Times New Roman&quot;&gt;&lt;br&gt;&lt;/font&gt;&lt;/div&gt;&lt;div style=&quot;font-size: 15px;&quot;&gt;&lt;font style=&quot;font-size: 15px;&quot; face=&quot;Times New Roman&quot;&gt;&lt;br&gt;&lt;/font&gt;&lt;/div&gt;&lt;div style=&quot;font-size: 15px;&quot;&gt;&lt;font style=&quot;font-size: 15px;&quot; face=&quot;Times New Roman&quot;&gt;&lt;br&gt;&lt;/font&gt;&lt;/div&gt;&lt;div style=&quot;font-size: 15px;&quot;&gt;&lt;br&gt;&lt;/div&gt;" style="rounded=1;whiteSpace=wrap;html=1;dashed=1;movable=1;resizable=1;rotatable=1;deletable=1;editable=1;locked=0;connectable=1;" vertex="1" parent="8lQEx15QJK0aQOlj2Dff-179">
          <mxGeometry width="449" height="250" as="geometry" />
        </mxCell>
        <mxCell id="8lQEx15QJK0aQOlj2Dff-97" value="&lt;blockquote style=&quot;margin: 0 0 0 40px; border: none; padding: 0px;&quot;&gt;&lt;blockquote style=&quot;text-align: left; margin: 0px 0px 0px 40px; border: none; padding: 0px;&quot;&gt;&lt;span style=&quot;font-family: &amp;quot;Times New Roman&amp;quot;; text-indent: 32px;&quot;&gt;The direct labor budget of Yuvwell Corporation for the upcoming fiscal year contains the following details concerning budgeted direct labor-hours:&lt;/span&gt;&lt;br&gt;&lt;/blockquote&gt;&lt;/blockquote&gt;" style="rounded=1;whiteSpace=wrap;html=1;fillColor=#d5e8d4;strokeColor=#82b366;movable=1;resizable=1;rotatable=1;deletable=1;editable=1;locked=0;connectable=1;dashed=1;" vertex="1" parent="8lQEx15QJK0aQOlj2Dff-179">
          <mxGeometry x="4.5" y="30" width="440" height="50" as="geometry" />
        </mxCell>
        <mxCell id="8lQEx15QJK0aQOlj2Dff-99" value="&lt;font face=&quot;Times New Roman&quot;&gt;Pre-T&lt;span style=&quot;background-color: initial;&quot;&gt;ext&lt;/span&gt;&lt;/font&gt;" style="rounded=1;whiteSpace=wrap;html=1;fillColor=#d5e8d4;strokeColor=none;dashed=1;movable=1;resizable=1;rotatable=1;deletable=1;editable=1;locked=0;connectable=1;" vertex="1" parent="8lQEx15QJK0aQOlj2Dff-179">
          <mxGeometry x="15.5" y="40" width="54" height="30" as="geometry" />
        </mxCell>
        <mxCell id="8lQEx15QJK0aQOlj2Dff-116" value="&lt;blockquote style=&quot;margin: 0 0 0 40px; border: none; padding: 0px;&quot;&gt;&lt;blockquote style=&quot;text-align: left; margin: 0px 0px 0px 40px; border: none; padding: 0px;&quot;&gt;&lt;br&gt;&lt;/blockquote&gt;&lt;/blockquote&gt;" style="rounded=1;whiteSpace=wrap;html=1;fillColor=#ffe6cc;strokeColor=#d79b00;movable=1;resizable=1;rotatable=1;deletable=1;editable=1;locked=0;connectable=1;dashed=1;" vertex="1" parent="8lQEx15QJK0aQOlj2Dff-179">
          <mxGeometry x="4.5" y="83" width="440" height="50" as="geometry" />
        </mxCell>
        <mxCell id="8lQEx15QJK0aQOlj2Dff-117" value="&lt;font face=&quot;Times New Roman&quot;&gt;Table&lt;/font&gt;" style="rounded=1;whiteSpace=wrap;html=1;fillColor=#ffe6cc;strokeColor=none;dashed=1;movable=1;resizable=1;rotatable=1;deletable=1;editable=1;locked=0;connectable=1;" vertex="1" parent="8lQEx15QJK0aQOlj2Dff-179">
          <mxGeometry x="15.5" y="93" width="54" height="30" as="geometry" />
        </mxCell>
        <mxCell id="8lQEx15QJK0aQOlj2Dff-101" value="" style="childLayout=tableLayout;recursiveResize=0;shadow=0;fillColor=none;movable=1;resizable=1;rotatable=1;deletable=1;editable=1;locked=0;connectable=1;" vertex="1" parent="8lQEx15QJK0aQOlj2Dff-179">
          <mxGeometry x="83.5" y="86" width="236" height="44" as="geometry" />
        </mxCell>
        <mxCell id="8lQEx15QJK0aQOlj2Dff-102" value="" style="shape=tableRow;horizontal=0;startSize=0;swimlaneHead=0;swimlaneBody=0;top=0;left=0;bottom=0;right=0;dropTarget=0;collapsible=0;recursiveResize=0;expand=0;fontStyle=0;fillColor=none;strokeColor=inherit;movable=1;resizable=1;rotatable=1;deletable=1;editable=1;locked=0;connectable=1;" vertex="1" parent="8lQEx15QJK0aQOlj2Dff-101">
          <mxGeometry width="236" height="20" as="geometry" />
        </mxCell>
        <mxCell id="8lQEx15QJK0aQOlj2Dff-103" value="" style="connectable=1;recursiveResize=0;strokeColor=inherit;fillColor=none;align=center;whiteSpace=wrap;html=1;movable=1;resizable=1;rotatable=1;deletable=1;editable=1;locked=0;" vertex="1" parent="8lQEx15QJK0aQOlj2Dff-102">
          <mxGeometry width="126" height="20" as="geometry">
            <mxRectangle width="126" height="20" as="alternateBounds" />
          </mxGeometry>
        </mxCell>
        <mxCell id="8lQEx15QJK0aQOlj2Dff-104" value="&lt;font face=&quot;Times New Roman&quot;&gt;Q1&lt;/font&gt;" style="connectable=1;recursiveResize=0;strokeColor=inherit;fillColor=none;align=center;whiteSpace=wrap;html=1;movable=1;resizable=1;rotatable=1;deletable=1;editable=1;locked=0;" vertex="1" parent="8lQEx15QJK0aQOlj2Dff-102">
          <mxGeometry x="126" width="55" height="20" as="geometry">
            <mxRectangle width="55" height="20" as="alternateBounds" />
          </mxGeometry>
        </mxCell>
        <mxCell id="8lQEx15QJK0aQOlj2Dff-105" value="&lt;font face=&quot;Times New Roman&quot;&gt;Q2&lt;/font&gt;" style="connectable=1;recursiveResize=0;strokeColor=inherit;fillColor=none;align=center;whiteSpace=wrap;html=1;movable=1;resizable=1;rotatable=1;deletable=1;editable=1;locked=0;" vertex="1" parent="8lQEx15QJK0aQOlj2Dff-102">
          <mxGeometry x="181" width="55" height="20" as="geometry">
            <mxRectangle width="55" height="20" as="alternateBounds" />
          </mxGeometry>
        </mxCell>
        <mxCell id="8lQEx15QJK0aQOlj2Dff-106" style="shape=tableRow;horizontal=0;startSize=0;swimlaneHead=0;swimlaneBody=0;top=0;left=0;bottom=0;right=0;dropTarget=0;collapsible=0;recursiveResize=0;expand=0;fontStyle=0;fillColor=none;strokeColor=inherit;movable=1;resizable=1;rotatable=1;deletable=1;editable=1;locked=0;connectable=1;" vertex="1" parent="8lQEx15QJK0aQOlj2Dff-101">
          <mxGeometry y="20" width="236" height="24" as="geometry" />
        </mxCell>
        <mxCell id="8lQEx15QJK0aQOlj2Dff-107" value="&lt;font style=&quot;font-size: 11px;&quot; face=&quot;Times New Roman&quot;&gt;Bu&lt;/font&gt;&lt;span style=&quot;font-size: 11px; font-family: &amp;quot;Times New Roman&amp;quot;; background-color: initial;&quot;&gt;dgeted direct labor-hours&lt;/span&gt;" style="connectable=1;recursiveResize=0;strokeColor=inherit;fillColor=none;align=center;whiteSpace=wrap;html=1;movable=1;resizable=1;rotatable=1;deletable=1;editable=1;locked=0;" vertex="1" parent="8lQEx15QJK0aQOlj2Dff-106">
          <mxGeometry width="126" height="24" as="geometry">
            <mxRectangle width="126" height="24" as="alternateBounds" />
          </mxGeometry>
        </mxCell>
        <mxCell id="8lQEx15QJK0aQOlj2Dff-108" value="&lt;font face=&quot;Times New Roman&quot;&gt;11,000&lt;/font&gt;" style="connectable=1;recursiveResize=0;strokeColor=inherit;fillColor=none;align=center;whiteSpace=wrap;html=1;movable=1;resizable=1;rotatable=1;deletable=1;editable=1;locked=0;" vertex="1" parent="8lQEx15QJK0aQOlj2Dff-106">
          <mxGeometry x="126" width="55" height="24" as="geometry">
            <mxRectangle width="55" height="24" as="alternateBounds" />
          </mxGeometry>
        </mxCell>
        <mxCell id="8lQEx15QJK0aQOlj2Dff-109" value="&lt;font face=&quot;Times New Roman&quot;&gt;12,000&lt;/font&gt;" style="connectable=1;recursiveResize=0;strokeColor=inherit;fillColor=none;align=center;whiteSpace=wrap;html=1;movable=1;resizable=1;rotatable=1;deletable=1;editable=1;locked=0;" vertex="1" parent="8lQEx15QJK0aQOlj2Dff-106">
          <mxGeometry x="181" width="55" height="24" as="geometry">
            <mxRectangle width="55" height="24" as="alternateBounds" />
          </mxGeometry>
        </mxCell>
        <mxCell id="8lQEx15QJK0aQOlj2Dff-134" value="" style="childLayout=tableLayout;recursiveResize=0;shadow=0;fillColor=none;movable=1;resizable=1;rotatable=1;deletable=1;editable=1;locked=0;connectable=1;" vertex="1" parent="8lQEx15QJK0aQOlj2Dff-179">
          <mxGeometry x="319.5" y="86" width="110" height="44" as="geometry" />
        </mxCell>
        <mxCell id="8lQEx15QJK0aQOlj2Dff-135" value="" style="shape=tableRow;horizontal=0;startSize=0;swimlaneHead=0;swimlaneBody=0;top=0;left=0;bottom=0;right=0;dropTarget=0;collapsible=0;recursiveResize=0;expand=0;fontStyle=0;fillColor=none;strokeColor=inherit;movable=1;resizable=1;rotatable=1;deletable=1;editable=1;locked=0;connectable=1;" vertex="1" parent="8lQEx15QJK0aQOlj2Dff-134">
          <mxGeometry width="110" height="20" as="geometry" />
        </mxCell>
        <mxCell id="8lQEx15QJK0aQOlj2Dff-136" value="&lt;font face=&quot;Times New Roman&quot;&gt;Q3&lt;/font&gt;" style="connectable=1;recursiveResize=0;strokeColor=inherit;fillColor=none;align=center;whiteSpace=wrap;html=1;movable=1;resizable=1;rotatable=1;deletable=1;editable=1;locked=0;" vertex="1" parent="8lQEx15QJK0aQOlj2Dff-135">
          <mxGeometry width="55" height="20" as="geometry">
            <mxRectangle width="55" height="20" as="alternateBounds" />
          </mxGeometry>
        </mxCell>
        <mxCell id="8lQEx15QJK0aQOlj2Dff-137" value="&lt;font face=&quot;Times New Roman&quot;&gt;Q4&lt;/font&gt;" style="connectable=1;recursiveResize=0;strokeColor=inherit;fillColor=none;align=center;whiteSpace=wrap;html=1;movable=1;resizable=1;rotatable=1;deletable=1;editable=1;locked=0;" vertex="1" parent="8lQEx15QJK0aQOlj2Dff-135">
          <mxGeometry x="55" width="55" height="20" as="geometry">
            <mxRectangle width="55" height="20" as="alternateBounds" />
          </mxGeometry>
        </mxCell>
        <mxCell id="8lQEx15QJK0aQOlj2Dff-138" value="" style="connectable=1;recursiveResize=0;strokeColor=inherit;fillColor=none;align=center;whiteSpace=wrap;html=1;movable=1;resizable=1;rotatable=1;deletable=1;editable=1;locked=0;" vertex="1" parent="8lQEx15QJK0aQOlj2Dff-135">
          <mxGeometry x="110" height="20" as="geometry">
            <mxRectangle height="20" as="alternateBounds" />
          </mxGeometry>
        </mxCell>
        <mxCell id="8lQEx15QJK0aQOlj2Dff-139" style="shape=tableRow;horizontal=0;startSize=0;swimlaneHead=0;swimlaneBody=0;top=0;left=0;bottom=0;right=0;dropTarget=0;collapsible=0;recursiveResize=0;expand=0;fontStyle=0;fillColor=none;strokeColor=inherit;movable=1;resizable=1;rotatable=1;deletable=1;editable=1;locked=0;connectable=1;" vertex="1" parent="8lQEx15QJK0aQOlj2Dff-134">
          <mxGeometry y="20" width="110" height="24" as="geometry" />
        </mxCell>
        <mxCell id="8lQEx15QJK0aQOlj2Dff-140" value="&lt;font face=&quot;Times New Roman&quot;&gt;14,000&lt;/font&gt;" style="connectable=1;recursiveResize=0;strokeColor=inherit;fillColor=none;align=center;whiteSpace=wrap;html=1;movable=1;resizable=1;rotatable=1;deletable=1;editable=1;locked=0;" vertex="1" parent="8lQEx15QJK0aQOlj2Dff-139">
          <mxGeometry width="55" height="24" as="geometry">
            <mxRectangle width="55" height="24" as="alternateBounds" />
          </mxGeometry>
        </mxCell>
        <mxCell id="8lQEx15QJK0aQOlj2Dff-141" value="&lt;font face=&quot;Times New Roman&quot;&gt;13,000&lt;/font&gt;" style="connectable=1;recursiveResize=0;strokeColor=inherit;fillColor=none;align=center;whiteSpace=wrap;html=1;movable=1;resizable=1;rotatable=1;deletable=1;editable=1;locked=0;" vertex="1" parent="8lQEx15QJK0aQOlj2Dff-139">
          <mxGeometry x="55" width="55" height="24" as="geometry">
            <mxRectangle width="55" height="24" as="alternateBounds" />
          </mxGeometry>
        </mxCell>
        <mxCell id="8lQEx15QJK0aQOlj2Dff-142" value="" style="connectable=1;recursiveResize=0;strokeColor=inherit;fillColor=none;align=center;whiteSpace=wrap;html=1;movable=1;resizable=1;rotatable=1;deletable=1;editable=1;locked=0;" vertex="1" parent="8lQEx15QJK0aQOlj2Dff-139">
          <mxGeometry x="110" height="24" as="geometry">
            <mxRectangle height="24" as="alternateBounds" />
          </mxGeometry>
        </mxCell>
        <mxCell id="8lQEx15QJK0aQOlj2Dff-143" value="&lt;blockquote style=&quot;margin: 0 0 0 40px; border: none; padding: 0px;&quot;&gt;&lt;blockquote style=&quot;margin: 0px 0px 0px 40px; border: none; padding: 0px;&quot;&gt;&lt;div style=&quot;text-align: justify;&quot;&gt;&lt;span style=&quot;font-family: &amp;quot;Times New Roman&amp;quot;; background-color: initial;&quot;&gt;Each unit requires 0.2 direct labor-hours and direct laborers are paid $16.00 per hour.&lt;/span&gt;&lt;/div&gt;&lt;font face=&quot;Times New Roman&quot;&gt;&lt;div style=&quot;text-align: justify;&quot;&gt;&lt;span style=&quot;background-color: initial;&quot;&gt;&lt;span style=&quot;white-space: pre;&quot;&gt;&#x9;&lt;/span&gt;In addition, the variable manufacturing overhead rate is $1.75 per direct labor-hour. The fixed&amp;nbsp;&lt;/span&gt;&lt;span style=&quot;background-color: initial;&quot;&gt;manufacturing overhead is $86,000 per quarter. The only noncash element of manufacturing over&lt;/span&gt;&lt;span style=&quot;background-color: initial;&quot;&gt;head is depreciation, which is $23,000 per quarter.&lt;/span&gt;&lt;/div&gt;&lt;/font&gt;&lt;/blockquote&gt;&lt;/blockquote&gt;" style="rounded=1;whiteSpace=wrap;html=1;fillColor=#fff2cc;strokeColor=#d6b656;movable=1;resizable=1;rotatable=1;deletable=1;editable=1;locked=0;connectable=1;dashed=1;align=right;" vertex="1" parent="8lQEx15QJK0aQOlj2Dff-179">
          <mxGeometry x="4.5" y="136" width="440" height="97" as="geometry" />
        </mxCell>
        <mxCell id="8lQEx15QJK0aQOlj2Dff-144" value="&lt;font face=&quot;Times New Roman&quot;&gt;Post&lt;/font&gt;&lt;span style=&quot;font-family: &amp;quot;Times New Roman&amp;quot;; background-color: initial;&quot;&gt;-T&lt;/span&gt;&lt;span style=&quot;font-family: &amp;quot;Times New Roman&amp;quot;; background-color: initial;&quot;&gt;ext&lt;/span&gt;" style="rounded=1;whiteSpace=wrap;html=1;fillColor=#fff2cc;strokeColor=none;dashed=1;movable=1;resizable=1;rotatable=1;deletable=1;editable=1;locked=0;connectable=1;" vertex="1" parent="8lQEx15QJK0aQOlj2Dff-179">
          <mxGeometry x="15.5" y="169.5" width="54" height="30" as="geometry" />
        </mxCell>
        <mxCell id="8lQEx15QJK0aQOlj2Dff-176" value="&lt;blockquote style=&quot;margin: 0 0 0 40px; border: none; padding: 0px;&quot;&gt;&lt;/blockquote&gt;&lt;span style=&quot;background-color: initial; font-family: &amp;quot;Times New Roman&amp;quot;;&quot;&gt;Calculate the company’s total estimated direct labor cost for each quarter of the upcoming&amp;nbsp;&lt;/span&gt;&lt;span style=&quot;background-color: initial; font-family: &amp;quot;Times New Roman&amp;quot;;&quot;&gt;fiscal year and for the year as a whole.&amp;nbsp;&lt;/span&gt;" style="rounded=1;whiteSpace=wrap;html=1;fillColor=#f8cecc;strokeColor=#b85450;movable=1;resizable=1;rotatable=1;deletable=1;editable=1;locked=0;connectable=1;dashed=1;align=center;" vertex="1" parent="8lQEx15QJK0aQOlj2Dff-179">
          <mxGeometry x="4.5" y="286" width="440" height="43" as="geometry" />
        </mxCell>
        <mxCell id="Z0aiki_BZGSeHNf1u2pW-4" value="" style="group" vertex="1" connectable="0" parent="1">
          <mxGeometry x="570" y="120" width="140" height="220" as="geometry" />
        </mxCell>
        <mxCell id="8lQEx15QJK0aQOlj2Dff-238" value="&lt;font style=&quot;font-size: 16px;&quot; face=&quot;Times New Roman&quot;&gt;Retrieved Data&lt;/font&gt;&lt;div style=&quot;font-size: 16px;&quot;&gt;&lt;font style=&quot;font-size: 16px;&quot; face=&quot;ynY04XK2u_OJrYg_Jt8J&quot;&gt;&lt;br&gt;&lt;/font&gt;&lt;/div&gt;&lt;div style=&quot;font-size: 16px;&quot;&gt;&lt;font style=&quot;font-size: 16px;&quot; face=&quot;ynY04XK2u_OJrYg_Jt8J&quot;&gt;&lt;br&gt;&lt;/font&gt;&lt;/div&gt;&lt;div style=&quot;font-size: 16px;&quot;&gt;&lt;font style=&quot;font-size: 16px;&quot; face=&quot;ynY04XK2u_OJrYg_Jt8J&quot;&gt;&lt;br&gt;&lt;/font&gt;&lt;/div&gt;&lt;div style=&quot;font-size: 16px;&quot;&gt;&lt;font style=&quot;font-size: 16px;&quot; face=&quot;ynY04XK2u_OJrYg_Jt8J&quot;&gt;&lt;br&gt;&lt;/font&gt;&lt;/div&gt;&lt;div style=&quot;font-size: 16px;&quot;&gt;&lt;font style=&quot;font-size: 16px;&quot; face=&quot;ynY04XK2u_OJrYg_Jt8J&quot;&gt;&lt;br&gt;&lt;/font&gt;&lt;/div&gt;&lt;div style=&quot;font-size: 16px;&quot;&gt;&lt;font style=&quot;font-size: 16px;&quot; face=&quot;ynY04XK2u_OJrYg_Jt8J&quot;&gt;&lt;br&gt;&lt;/font&gt;&lt;/div&gt;&lt;div style=&quot;font-size: 16px;&quot;&gt;&lt;font style=&quot;font-size: 16px;&quot; face=&quot;ynY04XK2u_OJrYg_Jt8J&quot;&gt;&lt;br&gt;&lt;/font&gt;&lt;/div&gt;&lt;div style=&quot;font-size: 16px;&quot;&gt;&lt;font style=&quot;font-size: 16px;&quot; face=&quot;ynY04XK2u_OJrYg_Jt8J&quot;&gt;&lt;br&gt;&lt;/font&gt;&lt;/div&gt;&lt;div style=&quot;font-size: 16px;&quot;&gt;&lt;font style=&quot;font-size: 16px;&quot; face=&quot;ynY04XK2u_OJrYg_Jt8J&quot;&gt;&lt;br&gt;&lt;/font&gt;&lt;/div&gt;&lt;div style=&quot;text-align: right; font-size: 16px;&quot;&gt;&lt;br&gt;&lt;/div&gt;" style="rounded=1;whiteSpace=wrap;html=1;dashed=1;" vertex="1" parent="Z0aiki_BZGSeHNf1u2pW-4">
          <mxGeometry width="140" height="220" as="geometry" />
        </mxCell>
        <mxCell id="8lQEx15QJK0aQOlj2Dff-237" value="" style="group" vertex="1" connectable="0" parent="Z0aiki_BZGSeHNf1u2pW-4">
          <mxGeometry x="10" y="30" width="120" height="180" as="geometry" />
        </mxCell>
        <mxCell id="8lQEx15QJK0aQOlj2Dff-182" value="" style="whiteSpace=wrap;html=1;rounded=1;dashed=1;" vertex="1" parent="8lQEx15QJK0aQOlj2Dff-237">
          <mxGeometry width="120" height="120" as="geometry" />
        </mxCell>
        <mxCell id="8lQEx15QJK0aQOlj2Dff-222" value="" style="group" vertex="1" connectable="0" parent="8lQEx15QJK0aQOlj2Dff-237">
          <mxGeometry x="10" y="10" width="100" height="103" as="geometry" />
        </mxCell>
        <mxCell id="8lQEx15QJK0aQOlj2Dff-184" value="&lt;span style=&quot;font-family: &amp;quot;Times New Roman&amp;quot;; text-indent: 32px;&quot;&gt;Text 1; Text 2; ...&lt;/span&gt;" style="rounded=1;whiteSpace=wrap;html=1;fillColor=#d5e8d4;strokeColor=#82b366;movable=1;resizable=1;rotatable=1;deletable=1;editable=1;locked=0;connectable=1;dashed=1;" vertex="1" parent="8lQEx15QJK0aQOlj2Dff-222">
          <mxGeometry width="100" height="30" as="geometry" />
        </mxCell>
        <mxCell id="8lQEx15QJK0aQOlj2Dff-186" value="&lt;div&gt;&lt;br&gt;&lt;/div&gt;..." style="rounded=1;whiteSpace=wrap;html=1;fillColor=#ffe6cc;strokeColor=#d79b00;movable=1;resizable=1;rotatable=1;deletable=1;editable=1;locked=0;connectable=1;dashed=1;" vertex="1" parent="8lQEx15QJK0aQOlj2Dff-222">
          <mxGeometry y="33" width="100" height="37" as="geometry" />
        </mxCell>
        <mxCell id="8lQEx15QJK0aQOlj2Dff-188" value="" style="childLayout=tableLayout;recursiveResize=0;shadow=0;fillColor=none;movable=1;resizable=1;rotatable=1;deletable=1;editable=1;locked=0;connectable=1;" vertex="1" parent="8lQEx15QJK0aQOlj2Dff-222">
          <mxGeometry x="6.84" y="42" width="86.84" height="13" as="geometry" />
        </mxCell>
        <mxCell id="8lQEx15QJK0aQOlj2Dff-189" value="" style="shape=tableRow;horizontal=0;startSize=0;swimlaneHead=0;swimlaneBody=0;top=0;left=0;bottom=0;right=0;dropTarget=0;collapsible=0;recursiveResize=0;expand=0;fontStyle=0;fillColor=none;strokeColor=inherit;movable=1;resizable=1;rotatable=1;deletable=1;editable=1;locked=0;connectable=1;" vertex="1" parent="8lQEx15QJK0aQOlj2Dff-188">
          <mxGeometry width="86.84" height="13" as="geometry" />
        </mxCell>
        <mxCell id="8lQEx15QJK0aQOlj2Dff-190" value="" style="connectable=1;recursiveResize=0;strokeColor=inherit;fillColor=none;align=center;whiteSpace=wrap;html=1;movable=1;resizable=1;rotatable=1;deletable=1;editable=1;locked=0;" vertex="1" parent="8lQEx15QJK0aQOlj2Dff-189">
          <mxGeometry width="28" height="13" as="geometry">
            <mxRectangle width="28" height="13" as="alternateBounds" />
          </mxGeometry>
        </mxCell>
        <mxCell id="8lQEx15QJK0aQOlj2Dff-191" value="" style="connectable=1;recursiveResize=0;strokeColor=inherit;fillColor=none;align=center;whiteSpace=wrap;html=1;movable=1;resizable=1;rotatable=1;deletable=1;editable=1;locked=0;" vertex="1" parent="8lQEx15QJK0aQOlj2Dff-189">
          <mxGeometry x="28" width="30" height="13" as="geometry">
            <mxRectangle width="30" height="13" as="alternateBounds" />
          </mxGeometry>
        </mxCell>
        <mxCell id="8lQEx15QJK0aQOlj2Dff-192" value="" style="connectable=1;recursiveResize=0;strokeColor=inherit;fillColor=none;align=center;whiteSpace=wrap;html=1;movable=1;resizable=1;rotatable=1;deletable=1;editable=1;locked=0;" vertex="1" parent="8lQEx15QJK0aQOlj2Dff-189">
          <mxGeometry x="58" width="29" height="13" as="geometry">
            <mxRectangle width="29" height="13" as="alternateBounds" />
          </mxGeometry>
        </mxCell>
        <mxCell id="8lQEx15QJK0aQOlj2Dff-221" value="&lt;span style=&quot;font-family: &amp;quot;Times New Roman&amp;quot;; text-indent: 32px;&quot;&gt;Text 1; Text 2; ...&lt;/span&gt;" style="rounded=1;whiteSpace=wrap;html=1;fillColor=#fff2cc;strokeColor=#d6b656;movable=1;resizable=1;rotatable=1;deletable=1;editable=1;locked=0;connectable=1;dashed=1;" vertex="1" parent="8lQEx15QJK0aQOlj2Dff-222">
          <mxGeometry y="73" width="100" height="30" as="geometry" />
        </mxCell>
        <mxCell id="8lQEx15QJK0aQOlj2Dff-236" value="" style="group" vertex="1" connectable="0" parent="8lQEx15QJK0aQOlj2Dff-237">
          <mxGeometry y="130" width="120" height="50" as="geometry" />
        </mxCell>
        <mxCell id="8lQEx15QJK0aQOlj2Dff-224" value="" style="whiteSpace=wrap;html=1;rounded=1;dashed=1;" vertex="1" parent="8lQEx15QJK0aQOlj2Dff-236">
          <mxGeometry width="120" height="50" as="geometry" />
        </mxCell>
        <mxCell id="8lQEx15QJK0aQOlj2Dff-226" value="&lt;span style=&quot;font-family: &amp;quot;Times New Roman&amp;quot;; text-indent: 32px;&quot;&gt;Text 1; Text 2; ...&lt;/span&gt;" style="rounded=1;whiteSpace=wrap;html=1;fillColor=#f8cecc;strokeColor=#b85450;movable=1;resizable=1;rotatable=1;deletable=1;editable=1;locked=0;connectable=1;dashed=1;" vertex="1" parent="8lQEx15QJK0aQOlj2Dff-236">
          <mxGeometry x="10" y="10" width="100" height="30" as="geometry" />
        </mxCell>
        <mxCell id="Z0aiki_BZGSeHNf1u2pW-7" value="" style="group;fillColor=#f8cecc;strokeColor=#b85450;" vertex="1" connectable="0" parent="1">
          <mxGeometry x="280" y="450" width="438.5" height="380" as="geometry" />
        </mxCell>
        <mxCell id="Z0aiki_BZGSeHNf1u2pW-37" value="" style="group" vertex="1" connectable="0" parent="Z0aiki_BZGSeHNf1u2pW-7">
          <mxGeometry x="15" y="10" width="423.5" height="370" as="geometry" />
        </mxCell>
        <mxCell id="Z0aiki_BZGSeHNf1u2pW-6" value="&lt;font style=&quot;font-size: 16px;&quot; face=&quot;Times New Roman&quot;&gt;Embedded Data&lt;/font&gt;&lt;div style=&quot;font-size: 16px;&quot;&gt;&lt;font style=&quot;font-size: 16px;&quot; face=&quot;ynY04XK2u_OJrYg_Jt8J&quot;&gt;&lt;br&gt;&lt;/font&gt;&lt;/div&gt;&lt;div style=&quot;font-size: 16px;&quot;&gt;&lt;font style=&quot;font-size: 16px;&quot; face=&quot;ynY04XK2u_OJrYg_Jt8J&quot;&gt;&lt;br&gt;&lt;/font&gt;&lt;/div&gt;&lt;div style=&quot;font-size: 16px;&quot;&gt;&lt;font style=&quot;font-size: 16px;&quot; face=&quot;ynY04XK2u_OJrYg_Jt8J&quot;&gt;&lt;br&gt;&lt;/font&gt;&lt;/div&gt;&lt;div style=&quot;font-size: 16px;&quot;&gt;&lt;font style=&quot;font-size: 16px;&quot; face=&quot;ynY04XK2u_OJrYg_Jt8J&quot;&gt;&lt;br&gt;&lt;/font&gt;&lt;/div&gt;&lt;div style=&quot;font-size: 16px;&quot;&gt;&lt;font style=&quot;font-size: 16px;&quot; face=&quot;ynY04XK2u_OJrYg_Jt8J&quot;&gt;&lt;br&gt;&lt;/font&gt;&lt;/div&gt;&lt;div style=&quot;font-size: 16px;&quot;&gt;&lt;font style=&quot;font-size: 16px;&quot; face=&quot;ynY04XK2u_OJrYg_Jt8J&quot;&gt;&lt;br&gt;&lt;/font&gt;&lt;/div&gt;&lt;div style=&quot;font-size: 16px;&quot;&gt;&lt;font style=&quot;font-size: 16px;&quot; face=&quot;ynY04XK2u_OJrYg_Jt8J&quot;&gt;&lt;br&gt;&lt;/font&gt;&lt;/div&gt;&lt;div style=&quot;font-size: 16px;&quot;&gt;&lt;font style=&quot;font-size: 16px;&quot; face=&quot;ynY04XK2u_OJrYg_Jt8J&quot;&gt;&lt;br&gt;&lt;/font&gt;&lt;/div&gt;&lt;div style=&quot;font-size: 16px;&quot;&gt;&lt;font style=&quot;font-size: 16px;&quot; face=&quot;ynY04XK2u_OJrYg_Jt8J&quot;&gt;&lt;br&gt;&lt;/font&gt;&lt;/div&gt;&lt;div style=&quot;text-align: right; font-size: 16px;&quot;&gt;&lt;br&gt;&lt;/div&gt;" style="rounded=1;whiteSpace=wrap;html=1;dashed=1;" vertex="1" parent="Z0aiki_BZGSeHNf1u2pW-37">
          <mxGeometry x="525" y="-370" width="140" height="220" as="geometry" />
        </mxCell>
        <mxCell id="33R9uhyw5h4uuBzIhche-41" style="edgeStyle=orthogonalEdgeStyle;rounded=0;orthogonalLoop=1;jettySize=auto;html=1;exitX=1;exitY=0.5;exitDx=0;exitDy=0;entryX=0;entryY=0.5;entryDx=0;entryDy=0;flowAnimation=1;shadow=1;curved=1;endArrow=none;endFill=0;" edge="1" parent="Z0aiki_BZGSeHNf1u2pW-37" source="Z0aiki_BZGSeHNf1u2pW-8" target="33R9uhyw5h4uuBzIhche-39">
          <mxGeometry relative="1" as="geometry" />
        </mxCell>
        <mxCell id="Z0aiki_BZGSeHNf1u2pW-8" value="" style="whiteSpace=wrap;html=1;rounded=1;dashed=1;" vertex="1" parent="Z0aiki_BZGSeHNf1u2pW-37">
          <mxGeometry x="535" y="-340" width="120" height="100" as="geometry" />
        </mxCell>
        <mxCell id="Z0aiki_BZGSeHNf1u2pW-18" value="" style="group" vertex="1" connectable="0" parent="Z0aiki_BZGSeHNf1u2pW-37">
          <mxGeometry x="535" y="-220" width="120" height="80" as="geometry" />
        </mxCell>
        <mxCell id="Z0aiki_BZGSeHNf1u2pW-19" value="" style="whiteSpace=wrap;html=1;rounded=1;dashed=1;fillColor=#f8cecc;strokeColor=#b85450;" vertex="1" parent="Z0aiki_BZGSeHNf1u2pW-18">
          <mxGeometry y="-10" width="120" height="75" as="geometry" />
        </mxCell>
        <mxCell id="Z0aiki_BZGSeHNf1u2pW-38" value="" style="group" vertex="1" connectable="0" parent="Z0aiki_BZGSeHNf1u2pW-18">
          <mxGeometry x="15" y="-2" width="90" height="80" as="geometry" />
        </mxCell>
        <mxCell id="Z0aiki_BZGSeHNf1u2pW-39" value="&lt;font face=&quot;Times New Roman&quot;&gt;...&lt;/font&gt;" style="connectable=0;recursiveResize=0;strokeColor=default;fillColor=none;align=center;whiteSpace=wrap;html=1;" vertex="1" parent="Z0aiki_BZGSeHNf1u2pW-38">
          <mxGeometry y="30" width="90" height="30" as="geometry">
            <mxRectangle width="60" height="15" as="alternateBounds" />
          </mxGeometry>
        </mxCell>
        <mxCell id="Z0aiki_BZGSeHNf1u2pW-40" value="" style="childLayout=tableLayout;recursiveResize=0;shadow=0;fillColor=none;" vertex="1" parent="Z0aiki_BZGSeHNf1u2pW-38">
          <mxGeometry width="90" height="30" as="geometry" />
        </mxCell>
        <mxCell id="Z0aiki_BZGSeHNf1u2pW-41" value="" style="shape=tableRow;horizontal=0;startSize=0;swimlaneHead=0;swimlaneBody=0;top=0;left=0;bottom=0;right=0;dropTarget=0;collapsible=0;recursiveResize=0;expand=0;fontStyle=0;fillColor=none;strokeColor=inherit;" vertex="1" parent="Z0aiki_BZGSeHNf1u2pW-40">
          <mxGeometry width="90" height="15" as="geometry" />
        </mxCell>
        <mxCell id="Z0aiki_BZGSeHNf1u2pW-42" value="&lt;font face=&quot;Times New Roman&quot; style=&quot;font-size: 12px;&quot;&gt;Vec* 1&lt;/font&gt;" style="connectable=0;recursiveResize=0;strokeColor=inherit;fillColor=none;align=center;whiteSpace=wrap;html=1;" vertex="1" parent="Z0aiki_BZGSeHNf1u2pW-41">
          <mxGeometry width="90" height="15" as="geometry">
            <mxRectangle width="90" height="15" as="alternateBounds" />
          </mxGeometry>
        </mxCell>
        <mxCell id="Z0aiki_BZGSeHNf1u2pW-43" value="" style="connectable=0;recursiveResize=0;strokeColor=inherit;fillColor=none;align=center;whiteSpace=wrap;html=1;" vertex="1" parent="Z0aiki_BZGSeHNf1u2pW-41">
          <mxGeometry x="90" height="15" as="geometry">
            <mxRectangle height="15" as="alternateBounds" />
          </mxGeometry>
        </mxCell>
        <mxCell id="Z0aiki_BZGSeHNf1u2pW-44" value="" style="connectable=0;recursiveResize=0;strokeColor=inherit;fillColor=none;align=center;whiteSpace=wrap;html=1;" vertex="1" parent="Z0aiki_BZGSeHNf1u2pW-41">
          <mxGeometry x="90" height="15" as="geometry">
            <mxRectangle height="15" as="alternateBounds" />
          </mxGeometry>
        </mxCell>
        <mxCell id="Z0aiki_BZGSeHNf1u2pW-45" style="shape=tableRow;horizontal=0;startSize=0;swimlaneHead=0;swimlaneBody=0;top=0;left=0;bottom=0;right=0;dropTarget=0;collapsible=0;recursiveResize=0;expand=0;fontStyle=0;fillColor=none;strokeColor=inherit;" vertex="1" parent="Z0aiki_BZGSeHNf1u2pW-40">
          <mxGeometry y="15" width="90" height="15" as="geometry" />
        </mxCell>
        <mxCell id="Z0aiki_BZGSeHNf1u2pW-46" value="&lt;font face=&quot;Times New Roman&quot;&gt;Vec* 2&lt;/font&gt;" style="connectable=0;recursiveResize=0;strokeColor=inherit;fillColor=none;align=center;whiteSpace=wrap;html=1;" vertex="1" parent="Z0aiki_BZGSeHNf1u2pW-45">
          <mxGeometry width="90" height="15" as="geometry">
            <mxRectangle width="90" height="15" as="alternateBounds" />
          </mxGeometry>
        </mxCell>
        <mxCell id="Z0aiki_BZGSeHNf1u2pW-47" value="" style="connectable=0;recursiveResize=0;strokeColor=inherit;fillColor=none;align=center;whiteSpace=wrap;html=1;" vertex="1" parent="Z0aiki_BZGSeHNf1u2pW-45">
          <mxGeometry x="90" height="15" as="geometry">
            <mxRectangle height="15" as="alternateBounds" />
          </mxGeometry>
        </mxCell>
        <mxCell id="Z0aiki_BZGSeHNf1u2pW-48" value="" style="connectable=0;recursiveResize=0;strokeColor=inherit;fillColor=none;align=center;whiteSpace=wrap;html=1;" vertex="1" parent="Z0aiki_BZGSeHNf1u2pW-45">
          <mxGeometry x="90" height="15" as="geometry">
            <mxRectangle height="15" as="alternateBounds" />
          </mxGeometry>
        </mxCell>
        <mxCell id="Z0aiki_BZGSeHNf1u2pW-36" value="&lt;font face=&quot;Times New Roman&quot;&gt;...&lt;/font&gt;" style="connectable=0;recursiveResize=0;strokeColor=default;fillColor=none;align=center;whiteSpace=wrap;html=1;" vertex="1" parent="Z0aiki_BZGSeHNf1u2pW-37">
          <mxGeometry x="550" y="-300" width="90" height="50" as="geometry">
            <mxRectangle width="60" height="15" as="alternateBounds" />
          </mxGeometry>
        </mxCell>
        <mxCell id="Z0aiki_BZGSeHNf1u2pW-23" value="" style="childLayout=tableLayout;recursiveResize=0;shadow=0;fillColor=none;" vertex="1" parent="Z0aiki_BZGSeHNf1u2pW-37">
          <mxGeometry x="550" y="-330" width="90" height="30" as="geometry" />
        </mxCell>
        <mxCell id="Z0aiki_BZGSeHNf1u2pW-24" value="" style="shape=tableRow;horizontal=0;startSize=0;swimlaneHead=0;swimlaneBody=0;top=0;left=0;bottom=0;right=0;dropTarget=0;collapsible=0;recursiveResize=0;expand=0;fontStyle=0;fillColor=none;strokeColor=inherit;" vertex="1" parent="Z0aiki_BZGSeHNf1u2pW-23">
          <mxGeometry width="90" height="15" as="geometry" />
        </mxCell>
        <mxCell id="Z0aiki_BZGSeHNf1u2pW-25" value="&lt;font face=&quot;Times New Roman&quot; style=&quot;font-size: 12px;&quot;&gt;Vec 1&lt;/font&gt;" style="connectable=0;recursiveResize=0;strokeColor=inherit;fillColor=none;align=center;whiteSpace=wrap;html=1;" vertex="1" parent="Z0aiki_BZGSeHNf1u2pW-24">
          <mxGeometry width="90" height="15" as="geometry">
            <mxRectangle width="90" height="15" as="alternateBounds" />
          </mxGeometry>
        </mxCell>
        <mxCell id="Z0aiki_BZGSeHNf1u2pW-26" value="" style="connectable=0;recursiveResize=0;strokeColor=inherit;fillColor=none;align=center;whiteSpace=wrap;html=1;" vertex="1" parent="Z0aiki_BZGSeHNf1u2pW-24">
          <mxGeometry x="90" height="15" as="geometry">
            <mxRectangle height="15" as="alternateBounds" />
          </mxGeometry>
        </mxCell>
        <mxCell id="Z0aiki_BZGSeHNf1u2pW-27" value="" style="connectable=0;recursiveResize=0;strokeColor=inherit;fillColor=none;align=center;whiteSpace=wrap;html=1;" vertex="1" parent="Z0aiki_BZGSeHNf1u2pW-24">
          <mxGeometry x="90" height="15" as="geometry">
            <mxRectangle height="15" as="alternateBounds" />
          </mxGeometry>
        </mxCell>
        <mxCell id="Z0aiki_BZGSeHNf1u2pW-32" style="shape=tableRow;horizontal=0;startSize=0;swimlaneHead=0;swimlaneBody=0;top=0;left=0;bottom=0;right=0;dropTarget=0;collapsible=0;recursiveResize=0;expand=0;fontStyle=0;fillColor=none;strokeColor=inherit;" vertex="1" parent="Z0aiki_BZGSeHNf1u2pW-23">
          <mxGeometry y="15" width="90" height="15" as="geometry" />
        </mxCell>
        <mxCell id="Z0aiki_BZGSeHNf1u2pW-33" value="&lt;font face=&quot;Times New Roman&quot;&gt;Vec 2&lt;/font&gt;" style="connectable=0;recursiveResize=0;strokeColor=inherit;fillColor=none;align=center;whiteSpace=wrap;html=1;" vertex="1" parent="Z0aiki_BZGSeHNf1u2pW-32">
          <mxGeometry width="90" height="15" as="geometry">
            <mxRectangle width="90" height="15" as="alternateBounds" />
          </mxGeometry>
        </mxCell>
        <mxCell id="Z0aiki_BZGSeHNf1u2pW-34" value="" style="connectable=0;recursiveResize=0;strokeColor=inherit;fillColor=none;align=center;whiteSpace=wrap;html=1;" vertex="1" parent="Z0aiki_BZGSeHNf1u2pW-32">
          <mxGeometry x="90" height="15" as="geometry">
            <mxRectangle height="15" as="alternateBounds" />
          </mxGeometry>
        </mxCell>
        <mxCell id="Z0aiki_BZGSeHNf1u2pW-35" value="" style="connectable=0;recursiveResize=0;strokeColor=inherit;fillColor=none;align=center;whiteSpace=wrap;html=1;" vertex="1" parent="Z0aiki_BZGSeHNf1u2pW-32">
          <mxGeometry x="90" height="15" as="geometry">
            <mxRectangle height="15" as="alternateBounds" />
          </mxGeometry>
        </mxCell>
        <mxCell id="33R9uhyw5h4uuBzIhche-53" style="edgeStyle=orthogonalEdgeStyle;rounded=0;orthogonalLoop=1;jettySize=auto;html=1;exitX=1;exitY=0.5;exitDx=0;exitDy=0;entryX=0;entryY=0.5;entryDx=0;entryDy=0;curved=1;shadow=1;flowAnimation=1;endArrow=none;endFill=0;" edge="1" parent="Z0aiki_BZGSeHNf1u2pW-37" source="33R9uhyw5h4uuBzIhche-10" target="33R9uhyw5h4uuBzIhche-38">
          <mxGeometry relative="1" as="geometry" />
        </mxCell>
        <mxCell id="33R9uhyw5h4uuBzIhche-10" value="&lt;font style=&quot;font-size: 16px;&quot; face=&quot;Times New Roman&quot;&gt;Chro&lt;/font&gt;&lt;span style=&quot;font-size: 16px; font-family: &amp;quot;Times New Roman&amp;quot;; background-color: initial;&quot;&gt;ma DB&lt;/span&gt;" style="rounded=1;whiteSpace=wrap;html=1;dashed=1;" vertex="1" parent="Z0aiki_BZGSeHNf1u2pW-37">
          <mxGeometry x="525" y="-120" width="140" height="40" as="geometry" />
        </mxCell>
        <mxCell id="33R9uhyw5h4uuBzIhche-42" style="edgeStyle=orthogonalEdgeStyle;rounded=0;orthogonalLoop=1;jettySize=auto;html=1;exitX=1;exitY=0.5;exitDx=0;exitDy=0;curved=1;flowAnimation=1;shadow=1;" edge="1" parent="Z0aiki_BZGSeHNf1u2pW-37" source="33R9uhyw5h4uuBzIhche-39">
          <mxGeometry relative="1" as="geometry">
            <mxPoint x="830" y="-310" as="targetPoint" />
          </mxGeometry>
        </mxCell>
        <mxCell id="33R9uhyw5h4uuBzIhche-39" value="&lt;font style=&quot;font-size: 11px;&quot;&gt;&lt;font style=&quot;font-size: 11px;&quot; face=&quot;Times New Roman&quot;&gt;Similarity&amp;nbsp;&lt;/font&gt;&lt;span style=&quot;background-color: initial; font-family: &amp;quot;Times New Roman&amp;quot;;&quot;&gt;Test&lt;/span&gt;&lt;/font&gt;&lt;div style=&quot;font-size: 11px;&quot;&gt;&lt;div style=&quot;text-wrap: nowrap;&quot;&gt;&lt;div style=&quot;&quot;&gt;&lt;div style=&quot;line-height: 15.4px;&quot;&gt;&lt;div style=&quot;line-height: 15.4px;&quot;&gt;&lt;div style=&quot;line-height: 15.4px;&quot;&gt;&lt;font style=&quot;font-size: 11px;&quot;&gt;&lt;font style=&quot;text-wrap: wrap; font-size: 11px;&quot; face=&quot;Times New Roman&quot;&gt;(Top 5&lt;/font&gt;&lt;span style=&quot;font-family: &amp;quot;Times New Roman&amp;quot;; text-wrap: wrap;&quot;&gt;)&lt;/span&gt;&lt;/font&gt;&lt;/div&gt;&lt;/div&gt;&lt;/div&gt;&lt;/div&gt;&lt;/div&gt;&lt;/div&gt;" style="rounded=0;whiteSpace=wrap;html=1;opacity=80;fillColor=#fcfcfc;" vertex="1" parent="Z0aiki_BZGSeHNf1u2pW-37">
          <mxGeometry x="700" y="-320" width="90" height="30" as="geometry" />
        </mxCell>
        <mxCell id="33R9uhyw5h4uuBzIhche-38" value="&lt;font style=&quot;font-size: 11px;&quot;&gt;&lt;font style=&quot;font-size: 11px;&quot; face=&quot;Times New Roman&quot;&gt;Similarity&amp;nbsp;&lt;/font&gt;&lt;span style=&quot;background-color: initial; font-family: &amp;quot;Times New Roman&amp;quot;;&quot;&gt;Test&lt;/span&gt;&lt;/font&gt;&lt;div style=&quot;font-size: 11px;&quot;&gt;&lt;div style=&quot;text-wrap: nowrap;&quot;&gt;&lt;div style=&quot;&quot;&gt;&lt;div style=&quot;line-height: 15.4px;&quot;&gt;&lt;div style=&quot;line-height: 15.4px;&quot;&gt;&lt;div style=&quot;line-height: 15.4px;&quot;&gt;&lt;font style=&quot;font-size: 11px;&quot;&gt;&lt;font style=&quot;text-wrap: wrap; font-size: 11px;&quot; face=&quot;Times New Roman&quot;&gt;(threshed = 0.25&lt;/font&gt;&lt;span style=&quot;font-family: &amp;quot;Times New Roman&amp;quot;; text-wrap: wrap;&quot;&gt;)&lt;/span&gt;&lt;/font&gt;&lt;/div&gt;&lt;/div&gt;&lt;/div&gt;&lt;/div&gt;&lt;/div&gt;&lt;/div&gt;" style="rounded=0;whiteSpace=wrap;html=1;" vertex="1" parent="Z0aiki_BZGSeHNf1u2pW-37">
          <mxGeometry x="700" y="-150" width="90" height="30" as="geometry" />
        </mxCell>
        <mxCell id="33R9uhyw5h4uuBzIhche-51" style="edgeStyle=orthogonalEdgeStyle;rounded=0;orthogonalLoop=1;jettySize=auto;html=1;exitX=1;exitY=0.5;exitDx=0;exitDy=0;entryX=0.5;entryY=0;entryDx=0;entryDy=0;curved=1;shadow=1;flowAnimation=0;" edge="1" parent="Z0aiki_BZGSeHNf1u2pW-37" source="Z0aiki_BZGSeHNf1u2pW-19" target="33R9uhyw5h4uuBzIhche-38">
          <mxGeometry relative="1" as="geometry" />
        </mxCell>
        <mxCell id="33R9uhyw5h4uuBzIhche-35" style="edgeStyle=orthogonalEdgeStyle;rounded=0;orthogonalLoop=1;jettySize=auto;html=1;exitX=1;exitY=0.5;exitDx=0;exitDy=0;curved=1;shadow=1;" edge="1" parent="Z0aiki_BZGSeHNf1u2pW-37" source="Z0aiki_BZGSeHNf1u2pW-19">
          <mxGeometry relative="1" as="geometry">
            <mxPoint x="740" y="-290" as="targetPoint" />
          </mxGeometry>
        </mxCell>
        <mxCell id="8lQEx15QJK0aQOlj2Dff-223" style="edgeStyle=orthogonalEdgeStyle;rounded=0;orthogonalLoop=1;jettySize=auto;html=1;exitX=1;exitY=0.5;exitDx=0;exitDy=0;entryX=0;entryY=0.5;entryDx=0;entryDy=0;curved=1;flowAnimation=0;shadow=1;" edge="1" parent="1" source="8lQEx15QJK0aQOlj2Dff-146" target="8lQEx15QJK0aQOlj2Dff-182">
          <mxGeometry relative="1" as="geometry" />
        </mxCell>
        <mxCell id="8lQEx15QJK0aQOlj2Dff-235" style="edgeStyle=orthogonalEdgeStyle;rounded=0;orthogonalLoop=1;jettySize=auto;html=1;exitX=1;exitY=0.5;exitDx=0;exitDy=0;entryX=0;entryY=0.5;entryDx=0;entryDy=0;curved=1;flowAnimation=0;shadow=1;" edge="1" parent="1" source="8lQEx15QJK0aQOlj2Dff-176" target="8lQEx15QJK0aQOlj2Dff-224">
          <mxGeometry relative="1" as="geometry" />
        </mxCell>
        <mxCell id="SZ3_0_-8KfvmIqHlMA2D-24" value="" style="group" vertex="1" connectable="0" parent="1">
          <mxGeometry x="1135" y="120" width="128.5" height="258" as="geometry" />
        </mxCell>
        <mxCell id="Z0aiki_BZGSeHNf1u2pW-51" value="&lt;font style=&quot;font-size: 16px;&quot; face=&quot;Times New Roman&quot;&gt;&quot;Golden Facts&quot;&amp;nbsp;&lt;/font&gt;&lt;div style=&quot;&quot;&gt;&lt;br&gt;&lt;/div&gt;&lt;div style=&quot;font-size: 16px;&quot;&gt;&lt;font style=&quot;font-size: 16px;&quot; face=&quot;ynY04XK2u_OJrYg_Jt8J&quot;&gt;&lt;br&gt;&lt;/font&gt;&lt;/div&gt;&lt;div style=&quot;font-size: 16px;&quot;&gt;&lt;font style=&quot;font-size: 16px;&quot; face=&quot;ynY04XK2u_OJrYg_Jt8J&quot;&gt;&lt;br&gt;&lt;/font&gt;&lt;/div&gt;&lt;div style=&quot;font-size: 16px;&quot;&gt;&lt;font style=&quot;font-size: 16px;&quot; face=&quot;ynY04XK2u_OJrYg_Jt8J&quot;&gt;&lt;br&gt;&lt;/font&gt;&lt;/div&gt;&lt;div style=&quot;font-size: 16px;&quot;&gt;&lt;font style=&quot;font-size: 16px;&quot; face=&quot;ynY04XK2u_OJrYg_Jt8J&quot;&gt;&lt;br&gt;&lt;/font&gt;&lt;/div&gt;&lt;div style=&quot;text-align: right; font-size: 16px;&quot;&gt;&lt;br&gt;&lt;/div&gt;" style="rounded=1;whiteSpace=wrap;html=1;dashed=1;" vertex="1" parent="SZ3_0_-8KfvmIqHlMA2D-24">
          <mxGeometry x="-11.5" y="-39" width="140" height="139" as="geometry" />
        </mxCell>
        <mxCell id="Z0aiki_BZGSeHNf1u2pW-67" value="" style="childLayout=tableLayout;recursiveResize=0;shadow=0;fillColor=none;" vertex="1" parent="SZ3_0_-8KfvmIqHlMA2D-24">
          <mxGeometry y="-9" width="117" height="36.4" as="geometry" />
        </mxCell>
        <mxCell id="Z0aiki_BZGSeHNf1u2pW-68" value="" style="shape=tableRow;horizontal=0;startSize=0;swimlaneHead=0;swimlaneBody=0;top=0;left=0;bottom=0;right=0;dropTarget=0;collapsible=0;recursiveResize=0;expand=0;fontStyle=0;fillColor=none;strokeColor=inherit;" vertex="1" parent="Z0aiki_BZGSeHNf1u2pW-67">
          <mxGeometry width="117" height="18" as="geometry" />
        </mxCell>
        <mxCell id="Z0aiki_BZGSeHNf1u2pW-69" value="&lt;font face=&quot;Times New Roman&quot; style=&quot;font-size: 12px;&quot;&gt;Text 1&lt;/font&gt;" style="connectable=0;recursiveResize=0;strokeColor=inherit;fillColor=none;align=center;whiteSpace=wrap;html=1;" vertex="1" parent="Z0aiki_BZGSeHNf1u2pW-68">
          <mxGeometry width="117" height="18" as="geometry">
            <mxRectangle width="117" height="18" as="alternateBounds" />
          </mxGeometry>
        </mxCell>
        <mxCell id="Z0aiki_BZGSeHNf1u2pW-70" value="" style="connectable=0;recursiveResize=0;strokeColor=inherit;fillColor=none;align=center;whiteSpace=wrap;html=1;" vertex="1" parent="Z0aiki_BZGSeHNf1u2pW-68">
          <mxGeometry x="117" height="18" as="geometry">
            <mxRectangle height="18" as="alternateBounds" />
          </mxGeometry>
        </mxCell>
        <mxCell id="Z0aiki_BZGSeHNf1u2pW-71" value="" style="connectable=0;recursiveResize=0;strokeColor=inherit;fillColor=none;align=center;whiteSpace=wrap;html=1;" vertex="1" parent="Z0aiki_BZGSeHNf1u2pW-68">
          <mxGeometry x="117" height="18" as="geometry">
            <mxRectangle height="18" as="alternateBounds" />
          </mxGeometry>
        </mxCell>
        <mxCell id="Z0aiki_BZGSeHNf1u2pW-72" style="shape=tableRow;horizontal=0;startSize=0;swimlaneHead=0;swimlaneBody=0;top=0;left=0;bottom=0;right=0;dropTarget=0;collapsible=0;recursiveResize=0;expand=0;fontStyle=0;fillColor=none;strokeColor=inherit;" vertex="1" parent="Z0aiki_BZGSeHNf1u2pW-67">
          <mxGeometry y="18" width="117" height="18" as="geometry" />
        </mxCell>
        <mxCell id="Z0aiki_BZGSeHNf1u2pW-73" value="&lt;span style=&quot;font-family: &amp;quot;Times New Roman&amp;quot;;&quot;&gt;Text&lt;/span&gt;&lt;font face=&quot;Times New Roman&quot;&gt;&amp;nbsp;2&lt;/font&gt;" style="connectable=0;recursiveResize=0;strokeColor=inherit;fillColor=none;align=center;whiteSpace=wrap;html=1;" vertex="1" parent="Z0aiki_BZGSeHNf1u2pW-72">
          <mxGeometry width="117" height="18" as="geometry">
            <mxRectangle width="117" height="18" as="alternateBounds" />
          </mxGeometry>
        </mxCell>
        <mxCell id="Z0aiki_BZGSeHNf1u2pW-74" value="" style="connectable=0;recursiveResize=0;strokeColor=inherit;fillColor=none;align=center;whiteSpace=wrap;html=1;" vertex="1" parent="Z0aiki_BZGSeHNf1u2pW-72">
          <mxGeometry x="117" height="18" as="geometry">
            <mxRectangle height="18" as="alternateBounds" />
          </mxGeometry>
        </mxCell>
        <mxCell id="Z0aiki_BZGSeHNf1u2pW-75" value="" style="connectable=0;recursiveResize=0;strokeColor=inherit;fillColor=none;align=center;whiteSpace=wrap;html=1;" vertex="1" parent="Z0aiki_BZGSeHNf1u2pW-72">
          <mxGeometry x="117" height="18" as="geometry">
            <mxRectangle height="18" as="alternateBounds" />
          </mxGeometry>
        </mxCell>
        <mxCell id="SZ3_0_-8KfvmIqHlMA2D-6" value="" style="childLayout=tableLayout;recursiveResize=0;shadow=0;fillColor=none;" vertex="1" parent="SZ3_0_-8KfvmIqHlMA2D-24">
          <mxGeometry y="27.4" width="117" height="36.4" as="geometry" />
        </mxCell>
        <mxCell id="SZ3_0_-8KfvmIqHlMA2D-7" value="" style="shape=tableRow;horizontal=0;startSize=0;swimlaneHead=0;swimlaneBody=0;top=0;left=0;bottom=0;right=0;dropTarget=0;collapsible=0;recursiveResize=0;expand=0;fontStyle=0;fillColor=none;strokeColor=inherit;" vertex="1" parent="SZ3_0_-8KfvmIqHlMA2D-6">
          <mxGeometry width="117" height="18" as="geometry" />
        </mxCell>
        <mxCell id="SZ3_0_-8KfvmIqHlMA2D-8" value="&lt;span style=&quot;font-family: &amp;quot;Times New Roman&amp;quot;;&quot;&gt;Text&lt;/span&gt;&lt;font face=&quot;Times New Roman&quot; style=&quot;font-size: 12px;&quot;&gt;&amp;nbsp;3&lt;/font&gt;" style="connectable=0;recursiveResize=0;strokeColor=inherit;fillColor=none;align=center;whiteSpace=wrap;html=1;" vertex="1" parent="SZ3_0_-8KfvmIqHlMA2D-7">
          <mxGeometry width="117" height="18" as="geometry">
            <mxRectangle width="117" height="18" as="alternateBounds" />
          </mxGeometry>
        </mxCell>
        <mxCell id="SZ3_0_-8KfvmIqHlMA2D-9" value="" style="connectable=0;recursiveResize=0;strokeColor=inherit;fillColor=none;align=center;whiteSpace=wrap;html=1;" vertex="1" parent="SZ3_0_-8KfvmIqHlMA2D-7">
          <mxGeometry x="117" height="18" as="geometry">
            <mxRectangle height="18" as="alternateBounds" />
          </mxGeometry>
        </mxCell>
        <mxCell id="SZ3_0_-8KfvmIqHlMA2D-10" value="" style="connectable=0;recursiveResize=0;strokeColor=inherit;fillColor=none;align=center;whiteSpace=wrap;html=1;" vertex="1" parent="SZ3_0_-8KfvmIqHlMA2D-7">
          <mxGeometry x="117" height="18" as="geometry">
            <mxRectangle height="18" as="alternateBounds" />
          </mxGeometry>
        </mxCell>
        <mxCell id="SZ3_0_-8KfvmIqHlMA2D-11" style="shape=tableRow;horizontal=0;startSize=0;swimlaneHead=0;swimlaneBody=0;top=0;left=0;bottom=0;right=0;dropTarget=0;collapsible=0;recursiveResize=0;expand=0;fontStyle=0;fillColor=none;strokeColor=inherit;" vertex="1" parent="SZ3_0_-8KfvmIqHlMA2D-6">
          <mxGeometry y="18" width="117" height="18" as="geometry" />
        </mxCell>
        <mxCell id="SZ3_0_-8KfvmIqHlMA2D-12" value="&lt;span style=&quot;font-family: &amp;quot;Times New Roman&amp;quot;;&quot;&gt;Text&lt;/span&gt;&lt;font face=&quot;Times New Roman&quot;&gt;&amp;nbsp;4&lt;/font&gt;" style="connectable=0;recursiveResize=0;strokeColor=inherit;fillColor=none;align=center;whiteSpace=wrap;html=1;" vertex="1" parent="SZ3_0_-8KfvmIqHlMA2D-11">
          <mxGeometry width="117" height="18" as="geometry">
            <mxRectangle width="117" height="18" as="alternateBounds" />
          </mxGeometry>
        </mxCell>
        <mxCell id="SZ3_0_-8KfvmIqHlMA2D-13" value="" style="connectable=0;recursiveResize=0;strokeColor=inherit;fillColor=none;align=center;whiteSpace=wrap;html=1;" vertex="1" parent="SZ3_0_-8KfvmIqHlMA2D-11">
          <mxGeometry x="117" height="18" as="geometry">
            <mxRectangle height="18" as="alternateBounds" />
          </mxGeometry>
        </mxCell>
        <mxCell id="SZ3_0_-8KfvmIqHlMA2D-14" value="" style="connectable=0;recursiveResize=0;strokeColor=inherit;fillColor=none;align=center;whiteSpace=wrap;html=1;" vertex="1" parent="SZ3_0_-8KfvmIqHlMA2D-11">
          <mxGeometry x="117" height="18" as="geometry">
            <mxRectangle height="18" as="alternateBounds" />
          </mxGeometry>
        </mxCell>
        <mxCell id="SZ3_0_-8KfvmIqHlMA2D-15" value="" style="childLayout=tableLayout;recursiveResize=0;shadow=0;fillColor=none;" vertex="1" parent="SZ3_0_-8KfvmIqHlMA2D-24">
          <mxGeometry y="63.8" width="117" height="18.2" as="geometry" />
        </mxCell>
        <mxCell id="SZ3_0_-8KfvmIqHlMA2D-16" value="" style="shape=tableRow;horizontal=0;startSize=0;swimlaneHead=0;swimlaneBody=0;top=0;left=0;bottom=0;right=0;dropTarget=0;collapsible=0;recursiveResize=0;expand=0;fontStyle=0;fillColor=none;strokeColor=inherit;" vertex="1" parent="SZ3_0_-8KfvmIqHlMA2D-15">
          <mxGeometry width="117" height="18" as="geometry" />
        </mxCell>
        <mxCell id="SZ3_0_-8KfvmIqHlMA2D-17" value="&lt;span style=&quot;font-family: &amp;quot;Times New Roman&amp;quot;;&quot;&gt;Text&lt;/span&gt;&lt;font face=&quot;Times New Roman&quot; style=&quot;font-size: 12px;&quot;&gt;&amp;nbsp;5&lt;/font&gt;" style="connectable=0;recursiveResize=0;strokeColor=inherit;fillColor=none;align=center;whiteSpace=wrap;html=1;" vertex="1" parent="SZ3_0_-8KfvmIqHlMA2D-16">
          <mxGeometry width="117" height="18" as="geometry">
            <mxRectangle width="117" height="18" as="alternateBounds" />
          </mxGeometry>
        </mxCell>
        <mxCell id="SZ3_0_-8KfvmIqHlMA2D-18" value="" style="connectable=0;recursiveResize=0;strokeColor=inherit;fillColor=none;align=center;whiteSpace=wrap;html=1;" vertex="1" parent="SZ3_0_-8KfvmIqHlMA2D-16">
          <mxGeometry x="117" height="18" as="geometry">
            <mxRectangle height="18" as="alternateBounds" />
          </mxGeometry>
        </mxCell>
        <mxCell id="SZ3_0_-8KfvmIqHlMA2D-19" value="" style="connectable=0;recursiveResize=0;strokeColor=inherit;fillColor=none;align=center;whiteSpace=wrap;html=1;" vertex="1" parent="SZ3_0_-8KfvmIqHlMA2D-16">
          <mxGeometry x="117" height="18" as="geometry">
            <mxRectangle height="18" as="alternateBounds" />
          </mxGeometry>
        </mxCell>
        <mxCell id="33R9uhyw5h4uuBzIhche-104" value="" style="group" vertex="1" connectable="0" parent="SZ3_0_-8KfvmIqHlMA2D-24">
          <mxGeometry y="150" width="128.5" height="118" as="geometry" />
        </mxCell>
        <mxCell id="33R9uhyw5h4uuBzIhche-105" value="&lt;font style=&quot;font-size: 16px;&quot; face=&quot;Times New Roman&quot;&gt;Terminologies&amp;nbsp;&lt;/font&gt;&lt;div style=&quot;&quot;&gt;&lt;br&gt;&lt;/div&gt;&lt;div style=&quot;font-size: 16px;&quot;&gt;&lt;font style=&quot;font-size: 16px;&quot; face=&quot;ynY04XK2u_OJrYg_Jt8J&quot;&gt;&lt;br&gt;&lt;/font&gt;&lt;/div&gt;&lt;div style=&quot;font-size: 16px;&quot;&gt;&lt;font style=&quot;font-size: 16px;&quot; face=&quot;ynY04XK2u_OJrYg_Jt8J&quot;&gt;&lt;br&gt;&lt;/font&gt;&lt;/div&gt;&lt;div style=&quot;font-size: 16px;&quot;&gt;&lt;font style=&quot;font-size: 16px;&quot; face=&quot;ynY04XK2u_OJrYg_Jt8J&quot;&gt;&lt;br&gt;&lt;/font&gt;&lt;/div&gt;&lt;div style=&quot;font-size: 16px;&quot;&gt;&lt;font style=&quot;font-size: 16px;&quot; face=&quot;ynY04XK2u_OJrYg_Jt8J&quot;&gt;&lt;br&gt;&lt;/font&gt;&lt;/div&gt;&lt;div style=&quot;text-align: right; font-size: 16px;&quot;&gt;&lt;br&gt;&lt;/div&gt;" style="rounded=1;whiteSpace=wrap;html=1;dashed=1;" vertex="1" parent="33R9uhyw5h4uuBzIhche-104">
          <mxGeometry x="-11.5" y="-39" width="140" height="139" as="geometry" />
        </mxCell>
        <mxCell id="33R9uhyw5h4uuBzIhche-106" value="" style="childLayout=tableLayout;recursiveResize=0;shadow=0;fillColor=none;" vertex="1" parent="33R9uhyw5h4uuBzIhche-104">
          <mxGeometry y="-9" width="117" height="36.4" as="geometry" />
        </mxCell>
        <mxCell id="33R9uhyw5h4uuBzIhche-107" value="" style="shape=tableRow;horizontal=0;startSize=0;swimlaneHead=0;swimlaneBody=0;top=0;left=0;bottom=0;right=0;dropTarget=0;collapsible=0;recursiveResize=0;expand=0;fontStyle=0;fillColor=none;strokeColor=inherit;" vertex="1" parent="33R9uhyw5h4uuBzIhche-106">
          <mxGeometry width="117" height="18" as="geometry" />
        </mxCell>
        <mxCell id="33R9uhyw5h4uuBzIhche-108" value="&lt;font face=&quot;Times New Roman&quot; style=&quot;font-size: 12px;&quot;&gt;Exp 1&lt;/font&gt;" style="connectable=0;recursiveResize=0;strokeColor=inherit;fillColor=none;align=center;whiteSpace=wrap;html=1;" vertex="1" parent="33R9uhyw5h4uuBzIhche-107">
          <mxGeometry width="117" height="18" as="geometry">
            <mxRectangle width="117" height="18" as="alternateBounds" />
          </mxGeometry>
        </mxCell>
        <mxCell id="33R9uhyw5h4uuBzIhche-109" value="" style="connectable=0;recursiveResize=0;strokeColor=inherit;fillColor=none;align=center;whiteSpace=wrap;html=1;" vertex="1" parent="33R9uhyw5h4uuBzIhche-107">
          <mxGeometry x="117" height="18" as="geometry">
            <mxRectangle height="18" as="alternateBounds" />
          </mxGeometry>
        </mxCell>
        <mxCell id="33R9uhyw5h4uuBzIhche-110" value="" style="connectable=0;recursiveResize=0;strokeColor=inherit;fillColor=none;align=center;whiteSpace=wrap;html=1;" vertex="1" parent="33R9uhyw5h4uuBzIhche-107">
          <mxGeometry x="117" height="18" as="geometry">
            <mxRectangle height="18" as="alternateBounds" />
          </mxGeometry>
        </mxCell>
        <mxCell id="33R9uhyw5h4uuBzIhche-111" style="shape=tableRow;horizontal=0;startSize=0;swimlaneHead=0;swimlaneBody=0;top=0;left=0;bottom=0;right=0;dropTarget=0;collapsible=0;recursiveResize=0;expand=0;fontStyle=0;fillColor=none;strokeColor=inherit;" vertex="1" parent="33R9uhyw5h4uuBzIhche-106">
          <mxGeometry y="18" width="117" height="18" as="geometry" />
        </mxCell>
        <mxCell id="33R9uhyw5h4uuBzIhche-112" value="&lt;font face=&quot;Times New Roman&quot;&gt;Exp 2&lt;/font&gt;" style="connectable=0;recursiveResize=0;strokeColor=inherit;fillColor=none;align=center;whiteSpace=wrap;html=1;" vertex="1" parent="33R9uhyw5h4uuBzIhche-111">
          <mxGeometry width="117" height="18" as="geometry">
            <mxRectangle width="117" height="18" as="alternateBounds" />
          </mxGeometry>
        </mxCell>
        <mxCell id="33R9uhyw5h4uuBzIhche-113" value="" style="connectable=0;recursiveResize=0;strokeColor=inherit;fillColor=none;align=center;whiteSpace=wrap;html=1;" vertex="1" parent="33R9uhyw5h4uuBzIhche-111">
          <mxGeometry x="117" height="18" as="geometry">
            <mxRectangle height="18" as="alternateBounds" />
          </mxGeometry>
        </mxCell>
        <mxCell id="33R9uhyw5h4uuBzIhche-114" value="" style="connectable=0;recursiveResize=0;strokeColor=inherit;fillColor=none;align=center;whiteSpace=wrap;html=1;" vertex="1" parent="33R9uhyw5h4uuBzIhche-111">
          <mxGeometry x="117" height="18" as="geometry">
            <mxRectangle height="18" as="alternateBounds" />
          </mxGeometry>
        </mxCell>
        <mxCell id="33R9uhyw5h4uuBzIhche-138" value="" style="shape=table;startSize=0;container=1;collapsible=0;childLayout=tableLayout;fontSize=16;" vertex="1" parent="33R9uhyw5h4uuBzIhche-104">
          <mxGeometry y="27.399999999999977" width="117" height="54.400000000000006" as="geometry" />
        </mxCell>
        <mxCell id="33R9uhyw5h4uuBzIhche-147" value="" style="shape=tableRow;horizontal=0;startSize=0;swimlaneHead=0;swimlaneBody=0;strokeColor=inherit;top=0;left=0;bottom=0;right=0;collapsible=0;dropTarget=0;fillColor=none;points=[[0,0.5],[1,0.5]];portConstraint=eastwest;fontSize=16;" vertex="1" parent="33R9uhyw5h4uuBzIhche-138">
          <mxGeometry width="117" height="54" as="geometry" />
        </mxCell>
        <mxCell id="33R9uhyw5h4uuBzIhche-148" value="..." style="shape=partialRectangle;html=1;whiteSpace=wrap;connectable=0;strokeColor=inherit;overflow=hidden;fillColor=none;top=0;left=0;bottom=0;right=0;pointerEvents=1;fontSize=16;" vertex="1" parent="33R9uhyw5h4uuBzIhche-147">
          <mxGeometry width="117" height="54" as="geometry">
            <mxRectangle width="117" height="54" as="alternateBounds" />
          </mxGeometry>
        </mxCell>
        <mxCell id="33R9uhyw5h4uuBzIhche-149" value="" style="shape=partialRectangle;html=1;whiteSpace=wrap;connectable=0;strokeColor=inherit;overflow=hidden;fillColor=none;top=0;left=0;bottom=0;right=0;pointerEvents=1;fontSize=16;" vertex="1" parent="33R9uhyw5h4uuBzIhche-147">
          <mxGeometry x="117" height="54" as="geometry">
            <mxRectangle height="54" as="alternateBounds" />
          </mxGeometry>
        </mxCell>
        <mxCell id="33R9uhyw5h4uuBzIhche-150" value="" style="shape=partialRectangle;html=1;whiteSpace=wrap;connectable=0;strokeColor=inherit;overflow=hidden;fillColor=none;top=0;left=0;bottom=0;right=0;pointerEvents=1;fontSize=16;" vertex="1" parent="33R9uhyw5h4uuBzIhche-147">
          <mxGeometry x="117" height="54" as="geometry">
            <mxRectangle height="54" as="alternateBounds" />
          </mxGeometry>
        </mxCell>
        <mxCell id="33R9uhyw5h4uuBzIhche-152" style="edgeStyle=orthogonalEdgeStyle;rounded=0;orthogonalLoop=1;jettySize=auto;html=1;exitX=1;exitY=0.5;exitDx=0;exitDy=0;entryX=0;entryY=0.5;entryDx=0;entryDy=0;curved=1;shadow=1;flowAnimation=1;" edge="1" parent="1" source="33R9uhyw5h4uuBzIhche-38" target="33R9uhyw5h4uuBzIhche-105">
          <mxGeometry relative="1" as="geometry" />
        </mxCell>
        <mxCell id="33R9uhyw5h4uuBzIhche-154" value="&lt;div style=&quot;text-align: right; font-size: 16px;&quot;&gt;&lt;font face=&quot;Times New Roman&quot;&gt;1st Exp&lt;/font&gt;&lt;/div&gt;" style="rounded=1;whiteSpace=wrap;html=1;dashed=1;" vertex="1" parent="1">
          <mxGeometry x="1345" y="230" width="80" height="30" as="geometry" />
        </mxCell>
        <mxCell id="33R9uhyw5h4uuBzIhche-155" style="edgeStyle=orthogonalEdgeStyle;rounded=0;orthogonalLoop=1;jettySize=auto;html=1;exitX=1;exitY=0.5;exitDx=0;exitDy=0;entryX=-0.032;entryY=0.625;entryDx=0;entryDy=0;entryPerimeter=0;shadow=1;curved=1;" edge="1" parent="1" source="33R9uhyw5h4uuBzIhche-105" target="33R9uhyw5h4uuBzIhche-154">
          <mxGeometry relative="1" as="geometry" />
        </mxCell>
        <mxCell id="33R9uhyw5h4uuBzIhche-156" value="&lt;font face=&quot;Times New Roman&quot;&gt;Reranker&lt;/font&gt;" style="edgeLabel;html=1;align=center;verticalAlign=middle;resizable=0;points=[];" vertex="1" connectable="0" parent="33R9uhyw5h4uuBzIhche-155">
          <mxGeometry x="0.0153" y="1" relative="1" as="geometry">
            <mxPoint as="offset" />
          </mxGeometry>
        </mxCell>
        <mxCell id="Tq0ni2vjePYTCpWP9eTG-1" style="edgeStyle=orthogonalEdgeStyle;rounded=0;orthogonalLoop=1;jettySize=auto;html=1;exitX=1;exitY=0.5;exitDx=0;exitDy=0;entryX=0;entryY=0.5;entryDx=0;entryDy=0;curved=1;shadow=1;" edge="1" parent="1" source="8lQEx15QJK0aQOlj2Dff-238" target="Z0aiki_BZGSeHNf1u2pW-6">
          <mxGeometry relative="1" as="geometry" />
        </mxCell>
        <mxCell id="Tq0ni2vjePYTCpWP9eTG-2" value="Embedding" style="edgeLabel;html=1;align=center;verticalAlign=middle;resizable=0;points=[];" vertex="1" connectable="0" parent="Tq0ni2vjePYTCpWP9eTG-1">
          <mxGeometry x="0.0211" y="2" relative="1" as="geometry">
            <mxPoint as="offset" />
          </mxGeometry>
        </mxCell>
        <mxCell id="Tq0ni2vjePYTCpWP9eTG-3" value="" style="shape=image;html=1;verticalAlign=top;verticalLabelPosition=bottom;labelBackgroundColor=#ffffff;imageAspect=0;aspect=fixed;image=https://cdn2.iconfinder.com/data/icons/bitsies/128/Crown-128.png" vertex="1" parent="1">
          <mxGeometry x="1370" y="200" width="30" height="30" as="geometry" />
        </mxCell>
      </root>
    </mxGraphModel>
  </diagram>
  <diagram id="4p4e4VTA-EsdMz4J6WMV" name="第 2 页">
    <mxGraphModel dx="2703" dy="1843" grid="1" gridSize="10" guides="1" tooltips="1" connect="1" arrows="1" fold="1" page="1" pageScale="1" pageWidth="827" pageHeight="1169" math="0" shadow="0">
      <root>
        <mxCell id="0" />
        <mxCell id="1" parent="0" />
      </root>
    </mxGraphModel>
  </diagram>
</mxfile>
